<svg width="148" height="148" viewBox="0 0 148 148" fill="none" xmlns="http://www.w3.org/2000/svg">
<path d="M75.1562 85.5625H72.8438V90.1875H75.1562V85.5625Z" fill="white"/>
<path d="M75.1562 57.8125H72.8438V62.4375H75.1562V57.8125Z" fill="white"/>
<path d="M62.4375 72.8438H57.8125V75.1562H62.4375V72.8438Z" fill="white"/>
<path d="M90.1875 72.8438H85.5625V75.1562H90.1875V72.8438Z" fill="white"/>
<path d="M86.2594 84.6291L82.9874 81.3572L81.3522 82.9923L84.6242 86.2643L86.2594 84.6291Z" fill="white"/>
<path d="M66.6378 65.0085L63.3658 61.7366L61.7306 63.3717L65.0026 66.6437L66.6378 65.0085Z" fill="white"/>
<path d="M66.6426 82.9904L65.0074 81.3552L61.7354 84.6272L63.3706 86.2624L66.6426 82.9904Z" fill="white"/>
<path d="M86.2629 63.3717L84.6278 61.7366L81.3558 65.0085L82.991 66.6437L86.2629 63.3717Z" fill="white"/>
<path d="M88.7248 113.335C84.5392 113.335 79.8078 111.733 74.8591 108.577C67.1301 103.649 59.7191 95.4707 53.9916 85.55C48.2642 75.6294 44.8873 65.1231 44.4832 55.9651C44.0676 46.537 46.8501 39.6064 52.3186 36.4487C57.787 33.291 65.1813 34.3472 73.138 39.4209C80.867 44.3494 88.2779 52.5275 94.0054 62.4482C99.7329 72.3688 103.11 82.875 103.514 92.0331C103.93 101.461 101.146 108.392 95.6779 111.549C93.6111 112.743 91.268 113.335 88.7248 113.335ZM59.2855 36.976C57.1401 36.976 55.1843 37.4645 53.4748 38.4513C48.7897 41.1558 46.4171 47.3394 46.7928 55.8627C47.1808 64.656 50.4483 74.7888 55.9943 84.3938C61.5397 93.9987 68.6801 101.894 76.1015 106.627C83.2951 111.215 89.836 112.251 94.5211 109.547C99.2062 106.842 101.579 100.659 101.203 92.1355C100.815 83.3422 97.5476 73.2094 92.0016 63.6044C86.4563 53.9994 79.3158 46.104 71.8944 41.3709C67.3255 38.4571 63.0196 36.976 59.2855 36.976Z" fill="white"/>
<path d="M59.2752 113.336C56.7314 113.336 54.3894 112.745 52.3221 111.551C46.8536 108.394 44.071 101.463 44.4861 92.0352C44.8903 82.8771 48.2671 72.3703 53.9946 62.4502C59.7221 52.5302 67.133 44.352 74.862 39.4229C82.8181 34.3499 90.213 33.2925 95.6814 36.4508C101.15 39.6079 103.932 46.5391 103.517 55.9665C103.113 65.1246 99.7364 75.6315 94.0089 85.5515C88.2814 95.4715 80.8704 103.65 73.1415 108.579C68.1927 111.734 63.4614 113.336 59.2752 113.336ZM88.7145 36.9774C84.9803 36.9774 80.675 38.4586 76.105 41.3724C68.6836 46.1055 61.5431 54.0009 55.9978 63.6059C50.4518 73.2108 47.1843 83.3431 46.7963 92.1369C46.4205 100.66 48.7932 106.844 53.4783 109.548C58.1623 112.252 64.7038 111.216 71.8979 106.629C79.3193 101.896 86.4598 94.0002 92.0051 84.3953C97.5511 74.7903 100.819 64.6581 101.207 55.8642C101.582 47.3409 99.2097 41.1573 94.5246 38.4528C92.8162 37.4665 90.8593 36.9774 88.7145 36.9774Z" fill="white"/>
<path d="M74 97.1007C62.545 97.1007 51.7572 94.7715 43.6247 90.5425C35.2517 86.1886 30.6406 80.3131 30.6406 73.9988C30.6406 67.6846 35.2517 61.8091 43.6247 57.4552C51.7572 53.2262 62.545 50.897 74 50.897C85.455 50.897 96.2428 53.2262 104.375 57.4552C112.748 61.8091 117.359 67.6846 117.359 73.9988C117.359 80.3131 112.748 86.1886 104.375 90.5425C96.2428 94.7715 85.455 97.1007 74 97.1007ZM74 53.2095C51.367 53.2095 32.9531 62.5352 32.9531 73.9988C32.9531 85.4625 51.367 94.7882 74 94.7882C96.633 94.7882 115.047 85.4625 115.047 73.9988C115.047 62.5352 96.633 53.2095 74 53.2095Z" fill="white"/>
<path d="M74 82.6719C78.7893 82.6719 82.6719 78.7893 82.6719 74C82.6719 69.2107 78.7893 65.3281 74 65.3281C69.2107 65.3281 65.3281 69.2107 65.3281 74C65.3281 78.7893 69.2107 82.6719 74 82.6719Z" fill="#FF8C1A"/>
<path d="M74 83.8281C68.5807 83.8281 64.1719 79.4193 64.1719 74C64.1719 68.5807 68.5807 64.1719 74 64.1719C79.4193 64.1719 83.8281 68.5807 83.8281 74C83.8281 79.4193 79.4193 83.8281 74 83.8281ZM74 66.4844C69.856 66.4844 66.4844 69.856 66.4844 74C66.4844 78.144 69.856 81.5156 74 81.5156C78.144 81.5156 81.5156 78.144 81.5156 74C81.5156 69.856 78.144 66.4844 74 66.4844Z" fill="white"/>
</svg>
